ffmpeg started on 2025-07-06 at 17:25:28
Report written to "D:\Convert\FFMetrics\reports\ssim_report-6.txt"
Log level: 32
Command line:
ffmpeg -hide_banner -nostdin -i "G:\\\xc0\xed\xe8\xec\xe5\\\xce\xed\xe3\xee\xe8\xed\xe3\xe8\\!_37_\xc7\xe8\xec\xe0_2025\\JamClub\\\xc3\xee\xeb\xf3\xe1\xe0\xff \xf8\xea\xe0\xf2\xf3\xeb\xea\xe0\\JamClub_Ao_no_Hako_01_1080p_HEVC.mkv" -i "G:\\\xc0\xed\xe8\xec\xe5\\\xce\xed\xe3\xee\xe8\xed\xe3\xe8\\!_37_\xc7\xe8\xec\xe0_2025\\JamClub\\\xc3\xee\xeb\xf3\xe1\xe0\xff \xf8\xea\xe0\xf2\xf3\xeb\xea\xe0\\JamClub_Ao_no_Hako_01_1080p.mp4" -lavfi "[0:v]settb=AVTB,setpts=PTS-STARTPTS,format=pix_fmts=yuv420p10,fps=24000/1001,scale=1920:1080:flags=bicubic[main];[1:v]settb=AVTB,setpts=PTS-STARTPTS,format=pix_fmts=yuv420p,fps=24000/1001,scale=1920:1080:flags=bicubic[ref];[main][ref]ssim=eof_action=endall:stats_file='D\\:/Convert/FFMetrics/logs/ssim_logfile-6.txt'" -f null -
Input #0, matroska,webm, from 'G:\Аниме\Онгоинги\!_37_Зима_2025\JamClub\Голубая шкатулка\JamClub_Ao_no_Hako_01_1080p_HEVC.mkv':
  Metadata:
    COMPATIBLE_BRANDS: isomiso2avc1mp41
    MAJOR_BRAND     : isom
    MINOR_VERSION   : 512
    ENCODER         : Lavf61.7.100
  Duration: 00:24:16.26, start: -0.021000, bitrate: 1277 kb/s
  Stream #0:0: Video: hevc (Main 10), yuv420p10le(tv, bt709, progressive), 1920x1080 [SAR 1:1 DAR 16:9], 23.98 fps, 23.98 tbr, 1k tbn (default)
      Metadata:
        HANDLER_NAME    : VideoHandler
        VENDOR_ID       : [0][0][0][0]
        ENCODER         : Lavc61.19.100 libx265
        BPS             : 1080416
        DURATION        : 00:24:16.162708333
        NUMBER_OF_FRAMES: 34913
        NUMBER_OF_BYTES : 196657639
        _STATISTICS_WRITING_APP: mkvpropedit v66.0.0 ('Josie') 64-bit
        _STATISTICS_WRITING_DATE_UTC: 2025-06-30 12:21:05
        _STATISTICS_TAGS: BPS DURATION NUMBER_OF_FRAMES NUMBER_OF_BYTES
  Stream #0:1(eng): Audio: aac (LC), 48000 Hz, stereo, fltp (default)
      Metadata:
        HANDLER_NAME    : SoundHandler
        VENDOR_ID       : [0][0][0][0]
        ENCODER         : Lavc61.19.100 aac
        BPS             : 192874
        DURATION        : 00:24:16.237000000
        NUMBER_OF_FRAMES: 68262
        NUMBER_OF_BYTES : 35108884
        _STATISTICS_WRITING_APP: mkvpropedit v66.0.0 ('Josie') 64-bit
        _STATISTICS_WRITING_DATE_UTC: 2025-06-30 12:21:05
        _STATISTICS_TAGS: BPS DURATION NUMBER_OF_FRAMES NUMBER_OF_BYTES
Input #1, mov,mp4,m4a,3gp,3g2,mj2, from 'G:\Аниме\Онгоинги\!_37_Зима_2025\JamClub\Голубая шкатулка\JamClub_Ao_no_Hako_01_1080p.mp4':
  Metadata:
    major_brand     : isom
    minor_version   : 512
    compatible_brands: isomiso2avc1mp41
    encoder         : Lavf60.16.100
  Duration: 00:24:16.24, start: 0.000000, bitrate: 4782 kb/s
  Stream #1:0[0x1](und): Video: h264 (High) (avc1 / 0x31637661), yuv420p(tv, bt709, progressive), 1920x1080 [SAR 1:1 DAR 16:9], 4584 kb/s, 23.98 fps, 23.98 tbr, 90k tbn (default)
      Metadata:
        handler_name    : VideoHandler
        vendor_id       : [0][0][0][0]
  Stream #1:1[0x2](eng): Audio: aac (LC) (mp4a / 0x6134706D), 48000 Hz, stereo, fltp, 191 kb/s (default)
      Metadata:
        handler_name    : SoundHandler
        vendor_id       : [0][0][0][0]
Stream mapping:
  Stream #0:0 (hevc) -> settb:default
  Stream #1:0 (h264) -> settb:default
  ssim:default -> Stream #0:0 (wrapped_avframe)
  Stream #0:1 -> #0:1 (aac (native) -> pcm_s16le (native))
Output #0, null, to 'pipe:':
  Metadata:
    COMPATIBLE_BRANDS: isomiso2avc1mp41
    MAJOR_BRAND     : isom
    MINOR_VERSION   : 512
    encoder         : Lavf61.7.100
  Stream #0:0: Video: wrapped_avframe, yuv420p10le(tv, bt709, progressive), 1920x1080 [SAR 1:1 DAR 16:9], q=2-31, 200 kb/s, 23.98 fps, 23.98 tbn
      Metadata:
        encoder         : Lavc61.19.100 wrapped_avframe
  Stream #0:1(eng): Audio: pcm_s16le, 48000 Hz, stereo, s16, 1536 kb/s (default)
      Metadata:
        HANDLER_NAME    : SoundHandler
        VENDOR_ID       : [0][0][0][0]
        _STATISTICS_TAGS: BPS DURATION NUMBER_OF_FRAMES NUMBER_OF_BYTES
        BPS             : 192874
        DURATION        : 00:24:16.237000000
        NUMBER_OF_FRAMES: 68262
        NUMBER_OF_BYTES : 35108884
        _STATISTICS_WRITING_APP: mkvpropedit v66.0.0 ('Josie') 64-bit
        _STATISTICS_WRITING_DATE_UTC: 2025-06-30 12:21:05
        encoder         : Lavc61.19.100 pcm_s16le
frame=  115 fps=0.0 q=-0.0 size=N/A time=00:00:04.79 bitrate=N/A speed=9.43x    frame=  281 fps=271 q=-0.0 size=N/A time=00:00:11.72 bitrate=N/A speed=11.3x    frame=  478 fps=309 q=-0.0 size=N/A time=00:00:19.93 bitrate=N/A speed=12.9x    frame=  716 fps=348 q=-0.0 size=N/A time=00:00:29.86 bitrate=N/A speed=14.5x    frame=  966 fps=374 q=-0.0 size=N/A time=00:00:40.29 bitrate=N/A speed=15.6x    frame= 1168 fps=377 q=-0.0 size=N/A time=00:00:48.71 bitrate=N/A speed=15.7x    frame= 1386 fps=384 q=-0.0 size=N/A time=00:00:57.80 bitrate=N/A speed=  16x    frame= 1612 fps=391 q=-0.0 size=N/A time=00:01:07.23 bitrate=N/A speed=16.3x    frame= 1858 fps=400 q=-0.0 size=N/A time=00:01:17.49 bitrate=N/A speed=16.7x    frame= 2109 fps=409 q=-0.0 size=N/A time=00:01:27.96 bitrate=N/A speed=17.1x    frame= 2355 fps=415 q=-0.0 size=N/A time=00:01:38.22 bitrate=N/A speed=17.3x    frame= 2608 fps=422 q=-0.0 size=N/A time=00:01:48.77 bitrate=N/A speed=17.6x    frame= 2833 fps=422 q=-0.0 size=N/A time=00:01:58.15 bitrate=N/A speed=17.6x    frame= 3071 fps=425 q=-0.0 size=N/A time=00:02:08.08 bitrate=N/A speed=17.7x    frame= 3278 fps=424 q=-0.0 size=N/A time=00:02:16.71 bitrate=N/A speed=17.7x    frame= 3488 fps=423 q=-0.0 size=N/A time=00:02:25.47 bitrate=N/A speed=17.6x    frame= 3725 fps=425 q=-0.0 size=N/A time=00:02:35.36 bitrate=N/A speed=17.7x    frame= 3966 fps=427 q=-0.0 size=N/A time=00:02:45.41 bitrate=N/A speed=17.8x    frame= 4187 fps=428 q=-0.0 size=N/A time=00:02:54.63 bitrate=N/A speed=17.8x    frame= 4407 fps=427 q=-0.0 size=N/A time=00:03:03.80 bitrate=N/A speed=17.8x    frame= 4616 fps=426 q=-0.0 size=N/A time=00:03:12.52 bitrate=N/A speed=17.8x    frame= 4825 fps=425 q=-0.0 size=N/A time=00:03:21.24 bitrate=N/A speed=17.7x    frame= 5033 fps=425 q=-0.0 size=N/A time=00:03:29.91 bitrate=N/A speed=17.7x    frame= 5235 fps=423 q=-0.0 size=N/A time=00:03:38.34 bitrate=N/A speed=17.6x    frame= 5425 fps=421 q=-0.0 size=N/A time=00:03:46.26 bitrate=N/A speed=17.5x    frame= 5630 fps=420 q=-0.0 size=N/A time=00:03:54.81 bitrate=N/A speed=17.5x    frame= 5837 fps=419 q=-0.0 size=N/A time=00:04:03.45 bitrate=N/A speed=17.5x    frame= 6052 fps=419 q=-0.0 size=N/A time=00:04:12.41 bitrate=N/A speed=17.5x    frame= 6303 fps=421 q=-0.0 size=N/A time=00:04:22.88 bitrate=N/A speed=17.6x    frame= 6500 fps=420 q=-0.0 size=N/A time=00:04:31.10 bitrate=N/A speed=17.5x    frame= 6648 fps=416 q=-0.0 size=N/A time=00:04:37.27 bitrate=N/A speed=17.4x    frame= 6890 fps=417 q=-0.0 size=N/A time=00:04:47.37 bitrate=N/A speed=17.4x    frame= 7130 fps=419 q=-0.0 size=N/A time=00:04:57.38 bitrate=N/A speed=17.5x    frame= 7339 fps=419 q=-0.0 size=N/A time=00:05:06.09 bitrate=N/A speed=17.5x    frame= 7518 fps=416 q=-0.0 size=N/A time=00:05:13.56 bitrate=N/A speed=17.4x    frame= 7746 fps=417 q=-0.0 size=N/A time=00:05:23.07 bitrate=N/A speed=17.4x    frame= 7991 fps=419 q=-0.0 size=N/A time=00:05:33.29 bitrate=N/A speed=17.5x    frame= 8243 fps=421 q=-0.0 size=N/A time=00:05:43.80 bitrate=N/A speed=17.6x    frame= 8501 fps=423 q=-0.0 size=N/A time=00:05:54.56 bitrate=N/A speed=17.6x    frame= 8733 fps=423 q=-0.0 size=N/A time=00:06:04.23 bitrate=N/A speed=17.7x    frame= 8977 fps=425 q=-0.0 size=N/A time=00:06:14.41 bitrate=N/A speed=17.7x    frame= 9225 fps=426 q=-0.0 size=N/A time=00:06:24.75 bitrate=N/A speed=17.8x    frame= 9460 fps=427 q=-0.0 size=N/A time=00:06:34.56 bitrate=N/A speed=17.8x    frame= 9677 fps=427 q=-0.0 size=N/A time=00:06:43.61 bitrate=N/A speed=17.8x    frame= 9938 fps=428 q=-0.0 size=N/A time=00:06:54.49 bitrate=N/A speed=17.9x    frame=10140 fps=428 q=-0.0 size=N/A time=00:07:02.92 bitrate=N/A speed=17.8x    frame=10324 fps=426 q=-0.0 size=N/A time=00:07:10.59 bitrate=N/A speed=17.8x    frame=10512 fps=425 q=-0.0 size=N/A time=00:07:18.43 bitrate=N/A speed=17.7x    frame=10748 fps=425 q=-0.0 size=N/A time=00:07:28.28 bitrate=N/A speed=17.7x    frame=10994 fps=426 q=-0.0 size=N/A time=00:07:38.54 bitrate=N/A speed=17.8x    frame=11237 fps=427 q=-0.0 size=N/A time=00:07:48.67 bitrate=N/A speed=17.8x    frame=11477 fps=428 q=-0.0 size=N/A time=00:07:58.68 bitrate=N/A speed=17.9x    frame=11728 fps=429 q=-0.0 size=N/A time=00:08:09.15 bitrate=N/A speed=17.9x    frame=11979 fps=430 q=-0.0 size=N/A time=00:08:19.62 bitrate=N/A speed=17.9x    frame=12227 fps=431 q=-0.0 size=N/A time=00:08:29.96 bitrate=N/A speed=  18x    frame=12450 fps=431 q=-0.0 size=N/A time=00:08:39.26 bitrate=N/A speed=  18x    frame=12693 fps=432 q=-0.0 size=N/A time=00:08:49.40 bitrate=N/A speed=  18x    frame=12966 fps=433 q=-0.0 size=N/A time=00:09:00.79 bitrate=N/A speed=18.1x    frame=13211 fps=434 q=-0.0 size=N/A time=00:09:11.00 bitrate=N/A speed=18.1x    frame=13465 fps=435 q=-0.0 size=N/A time=00:09:21.60 bitrate=N/A speed=18.2x    frame=13710 fps=436 q=-0.0 size=N/A time=00:09:31.82 bitrate=N/A speed=18.2x    frame=13978 fps=437 q=-0.0 size=N/A time=00:09:42.99 bitrate=N/A speed=18.2x    frame=14219 fps=438 q=-0.0 size=N/A time=00:09:53.05 bitrate=N/A speed=18.3x    frame=14452 fps=438 q=-0.0 size=N/A time=00:10:02.76 bitrate=N/A speed=18.3x    frame=14690 fps=438 q=-0.0 size=N/A time=00:10:12.69 bitrate=N/A speed=18.3x    frame=14948 fps=439 q=-0.0 size=N/A time=00:10:23.45 bitrate=N/A speed=18.3x    frame=15197 fps=440 q=-0.0 size=N/A time=00:10:33.84 bitrate=N/A speed=18.3x    frame=15408 fps=439 q=-0.0 size=N/A time=00:10:42.64 bitrate=N/A speed=18.3x    frame=15635 fps=439 q=-0.0 size=N/A time=00:10:52.10 bitrate=N/A speed=18.3x    frame=15877 fps=440 q=-0.0 size=N/A time=00:11:02.20 bitrate=N/A speed=18.3x    frame=16101 fps=440 q=-0.0 size=N/A time=00:11:11.54 bitrate=N/A speed=18.3x    frame=16363 fps=441 q=-0.0 size=N/A time=00:11:22.47 bitrate=N/A speed=18.4x    frame=16623 fps=442 q=-0.0 size=N/A time=00:11:33.31 bitrate=N/A speed=18.4x    frame=16859 fps=442 q=-0.0 size=N/A time=00:11:43.16 bitrate=N/A speed=18.4x    frame=17105 fps=442 q=-0.0 size=N/A time=00:11:53.42 bitrate=N/A speed=18.4x    frame=17361 fps=443 q=-0.0 size=N/A time=00:12:04.09 bitrate=N/A speed=18.5x    frame=17626 fps=444 q=-0.0 size=N/A time=00:12:15.15 bitrate=N/A speed=18.5x    frame=17881 fps=445 q=-0.0 size=N/A time=00:12:25.78 bitrate=N/A speed=18.5x    frame=18123 fps=445 q=-0.0 size=N/A time=00:12:35.88 bitrate=N/A speed=18.6x    frame=18390 fps=446 q=-0.0 size=N/A time=00:12:47.01 bitrate=N/A speed=18.6x    frame=18635 fps=446 q=-0.0 size=N/A time=00:12:57.23 bitrate=N/A speed=18.6x    frame=18887 fps=447 q=-0.0 size=N/A time=00:13:07.74 bitrate=N/A speed=18.6x    frame=19139 fps=447 q=-0.0 size=N/A time=00:13:18.25 bitrate=N/A speed=18.7x    frame=19378 fps=447 q=-0.0 size=N/A time=00:13:28.22 bitrate=N/A speed=18.7x    frame=19588 fps=447 q=-0.0 size=N/A time=00:13:36.98 bitrate=N/A speed=18.6x    frame=19814 fps=447 q=-0.0 size=N/A time=00:13:46.40 bitrate=N/A speed=18.6x    frame=20067 fps=447 q=-0.0 size=N/A time=00:13:56.96 bitrate=N/A speed=18.7x    frame=20315 fps=448 q=-0.0 size=N/A time=00:14:07.30 bitrate=N/A speed=18.7x    frame=20543 fps=448 q=-0.0 size=N/A time=00:14:16.81 bitrate=N/A speed=18.7x    frame=20786 fps=448 q=-0.0 size=N/A time=00:14:26.94 bitrate=N/A speed=18.7x    frame=21000 fps=448 q=-0.0 size=N/A time=00:14:35.87 bitrate=N/A speed=18.7x    frame=21255 fps=448 q=-0.0 size=N/A time=00:14:46.51 bitrate=N/A speed=18.7x    frame=21500 fps=448 q=-0.0 size=N/A time=00:14:56.72 bitrate=N/A speed=18.7x    frame=21742 fps=449 q=-0.0 size=N/A time=00:15:06.82 bitrate=N/A speed=18.7x    frame=21988 fps=449 q=-0.0 size=N/A time=00:15:17.08 bitrate=N/A speed=18.7x    frame=22225 fps=449 q=-0.0 size=N/A time=00:15:26.96 bitrate=N/A speed=18.7x    frame=22416 fps=448 q=-0.0 size=N/A time=00:15:34.93 bitrate=N/A speed=18.7x    frame=22653 fps=448 q=-0.0 size=N/A time=00:15:44.81 bitrate=N/A speed=18.7x    frame=22891 fps=448 q=-0.0 size=N/A time=00:15:54.74 bitrate=N/A speed=18.7x    frame=23124 fps=448 q=-0.0 size=N/A time=00:16:04.46 bitrate=N/A speed=18.7x    frame=23379 fps=449 q=-0.0 size=N/A time=00:16:15.09 bitrate=N/A speed=18.7x    frame=23634 fps=449 q=-0.0 size=N/A time=00:16:25.73 bitrate=N/A speed=18.7x    frame=23866 fps=449 q=-0.0 size=N/A time=00:16:35.41 bitrate=N/A speed=18.7x    frame=24103 fps=449 q=-0.0 size=N/A time=00:16:45.29 bitrate=N/A speed=18.7x    frame=24344 fps=450 q=-0.0 size=N/A time=00:16:55.34 bitrate=N/A speed=18.8x    frame=24600 fps=450 q=-0.0 size=N/A time=00:17:06.02 bitrate=N/A speed=18.8x    frame=24864 fps=451 q=-0.0 size=N/A time=00:17:17.03 bitrate=N/A speed=18.8x    frame=25110 fps=451 q=-0.0 size=N/A time=00:17:27.29 bitrate=N/A speed=18.8x    frame=25350 fps=451 q=-0.0 size=N/A time=00:17:37.30 bitrate=N/A speed=18.8x    frame=25584 fps=451 q=-0.0 size=N/A time=00:17:47.06 bitrate=N/A speed=18.8x    frame=25858 fps=452 q=-0.0 size=N/A time=00:17:58.49 bitrate=N/A speed=18.8x    frame=26097 fps=452 q=-0.0 size=N/A time=00:18:08.46 bitrate=N/A speed=18.8x    frame=26341 fps=452 q=-0.0 size=N/A time=00:18:18.63 bitrate=N/A speed=18.9x    frame=26587 fps=452 q=-0.0 size=N/A time=00:18:28.89 bitrate=N/A speed=18.9x    frame=26806 fps=452 q=-0.0 size=N/A time=00:18:38.03 bitrate=N/A speed=18.9x    frame=26997 fps=451 q=-0.0 size=N/A time=00:18:45.99 bitrate=N/A speed=18.8x    frame=27198 fps=451 q=-0.0 size=N/A time=00:18:54.38 bitrate=N/A speed=18.8x    frame=27415 fps=451 q=-0.0 size=N/A time=00:19:03.43 bitrate=N/A speed=18.8x    frame=27643 fps=450 q=-0.0 size=N/A time=00:19:12.94 bitrate=N/A speed=18.8x    frame=27879 fps=451 q=-0.0 size=N/A time=00:19:22.78 bitrate=N/A speed=18.8x    frame=28115 fps=451 q=-0.0 size=N/A time=00:19:32.62 bitrate=N/A speed=18.8x    frame=28373 fps=451 q=-0.0 size=N/A time=00:19:43.39 bitrate=N/A speed=18.8x    frame=28609 fps=451 q=-0.0 size=N/A time=00:19:53.23 bitrate=N/A speed=18.8x    frame=28845 fps=451 q=-0.0 size=N/A time=00:20:03.07 bitrate=N/A speed=18.8x    frame=29076 fps=451 q=-0.0 size=N/A time=00:20:12.71 bitrate=N/A speed=18.8x    frame=29325 fps=451 q=-0.0 size=N/A time=00:20:23.09 bitrate=N/A speed=18.8x    frame=29548 fps=451 q=-0.0 size=N/A time=00:20:32.39 bitrate=N/A speed=18.8x    frame=29780 fps=451 q=-0.0 size=N/A time=00:20:42.07 bitrate=N/A speed=18.8x    frame=30009 fps=451 q=-0.0 size=N/A time=00:20:51.62 bitrate=N/A speed=18.8x    frame=30232 fps=451 q=-0.0 size=N/A time=00:21:00.92 bitrate=N/A speed=18.8x    frame=30454 fps=451 q=-0.0 size=N/A time=00:21:10.18 bitrate=N/A speed=18.8x    frame=30687 fps=451 q=-0.0 size=N/A time=00:21:19.90 bitrate=N/A speed=18.8x    frame=30945 fps=451 q=-0.0 size=N/A time=00:21:30.66 bitrate=N/A speed=18.8x    frame=31200 fps=452 q=-0.0 size=N/A time=00:21:41.30 bitrate=N/A speed=18.8x    frame=31462 fps=452 q=-0.0 size=N/A time=00:21:52.22 bitrate=N/A speed=18.9x    frame=31708 fps=452 q=-0.0 size=N/A time=00:22:02.48 bitrate=N/A speed=18.9x    frame=31962 fps=452 q=-0.0 size=N/A time=00:22:13.08 bitrate=N/A speed=18.9x    frame=32209 fps=453 q=-0.0 size=N/A time=00:22:23.38 bitrate=N/A speed=18.9x    frame=32446 fps=453 q=-0.0 size=N/A time=00:22:33.26 bitrate=N/A speed=18.9x    frame=32590 fps=452 q=-0.0 size=N/A time=00:22:39.27 bitrate=N/A speed=18.8x    frame=32831 fps=452 q=-0.0 size=N/A time=00:22:49.32 bitrate=N/A speed=18.8x    frame=33018 fps=451 q=-0.0 size=N/A time=00:22:57.12 bitrate=N/A speed=18.8x    frame=33235 fps=451 q=-0.0 size=N/A time=00:23:06.17 bitrate=N/A speed=18.8x    frame=33427 fps=450 q=-0.0 size=N/A time=00:23:14.18 bitrate=N/A speed=18.8x    frame=33653 fps=450 q=-0.0 size=N/A time=00:23:23.61 bitrate=N/A speed=18.8x    frame=33894 fps=450 q=-0.0 size=N/A time=00:23:33.66 bitrate=N/A speed=18.8x    frame=34093 fps=450 q=-0.0 size=N/A time=00:23:41.96 bitrate=N/A speed=18.8x    frame=34316 fps=450 q=-0.0 size=N/A time=00:23:51.26 bitrate=N/A speed=18.8x    frame=34543 fps=450 q=-0.0 size=N/A time=00:24:00.73 bitrate=N/A speed=18.8x    frame=34765 fps=449 q=-0.0 size=N/A time=00:24:09.99 bitrate=N/A speed=18.7x    [Parsed_ssim_10 @ 0000017a10f67ec0] SSIM Y:0.993908 (22.152541) U:0.993845 (22.107577) V:0.993839 (22.103725) All:0.993886 (22.136854)
[out#0/null @ 0000017a1081c040] video:15002KiB audio:273048KiB subtitle:0KiB other streams:0KiB global headers:0KiB muxing overhead: unknown
frame=34913 fps=450 q=-0.0 Lsize=N/A time=00:24:16.16 bitrate=N/A speed=18.8x    
